HIERARCHY
ROOT reference
{
  OFFSET 0 0 0
  CHANNELS 6 Xposition Yposition Zposition Zrotation Xrotation Yrotation
  JOINT Hips
  {
    OFFSET 346.547 88.4868 223.89
    CHANNELS 3 Zrotation Xrotation Yrotation
    JOINT RightUpLeg
    {
      OFFSET -9.27468 -1.51611 -0.00175448
      CHANNELS 3 Zrotation Xrotation Yrotation
      JOINT RightLeg
      {
        OFFSET -0.00464511 -41.8738 0.0184652
        CHANNELS 3 Zrotation Xrotation Yrotation
        JOINT RightFoot
        {
          OFFSET -0.626239 -42.3044 -0.171503
          CHANNELS 3 Zrotation Xrotation Yrotation
          End Site
          {
            OFFSET 0 -7.69 17.5
          }
        }
      }
    }
    JOINT LeftUpLeg
    {
      OFFSET 9.30083 -1.68454 -0.0454748
      CHANNELS 3 Zrotation Xrotation Yrotation
      JOINT LeftLeg
      {
        OFFSET 0.0692631 -41.8513 -0.097029
        CHANNELS 3 Zrotation Xrotation Yrotation
        JOINT LeftFoot
        {
          OFFSET 0.520945 -41.523 0.446349
          CHANNELS 3 Zrotation Xrotation Yrotation
          End Site
          {
            OFFSET 0 -7.69 17.5
          }
        }
      }
    }
    JOINT Spine
    {
      OFFSET 0.0770133 14.2992 0.0590021
      CHANNELS 3 Zrotation Xrotation Yrotation
      JOINT Spine1
      {
        OFFSET 0.0471461 9.71665 0.020973
        CHANNELS 3 Zrotation Xrotation Yrotation
        JOINT Spine2
        {
          OFFSET 0.051283 10.117 0.000913966
          CHANNELS 3 Zrotation Xrotation Yrotation
          JOINT Spine3
          {
            OFFSET 0.0447963 9.71088 0.00221408
            CHANNELS 3 Zrotation Xrotation Yrotation
            JOINT Neck
            {
              OFFSET 0.115655 10.3749 0.0448519
              CHANNELS 3 Zrotation Xrotation Yrotation
              JOINT Head
              {
                OFFSET 0.0937003 9.47807 0.0215077
                CHANNELS 3 Zrotation Xrotation Yrotation
                End Site
                {
                  OFFSET 0 15.95 0
                }
              }
            }
            JOINT RightShoulder
            {
              OFFSET -3.17023 6.91072 -0.0050072
              CHANNELS 3 Zrotation Xrotation Yrotation
              JOINT RightArm
              {
                OFFSET -12.7573 0.00694711 0.0313031
                CHANNELS 3 Zrotation Xrotation Yrotation
                JOINT RightForeArm
                {
                  OFFSET -26.5152 -0.0619338 -0.0331286
                  CHANNELS 3 Zrotation Xrotation Yrotation
                  JOINT RightHand
                  {
                    OFFSET -25.9971 0.0398378 -0.0269922
                    CHANNELS 3 Zrotation Xrotation Yrotation
                    JOINT RightHandThumb1
                    {
                      OFFSET -2.48905 0.190105 3.12053
                      CHANNELS 3 Zrotation Xrotation Yrotation
                      JOINT RightHandThumb2
                      {
                        OFFSET -3.68274 0 0
                        CHANNELS 3 Zrotation Xrotation Yrotation
                        JOINT RightHandThumb3
                        {
                          OFFSET -2.55832 0 0
                          CHANNELS 3 Zrotation Xrotation Yrotation
                          End Site
                          {
                            OFFSET -2.194 0 0
                          }
                        }
                      }
                    }
                    JOINT RightInHandIndex
                    {
                      OFFSET -3.22368 0.508421 1.97842
                      CHANNELS 3 Zrotation Xrotation Yrotation
                      JOINT RightHandIndex1
                      {
                        OFFSET -5.21684 -0.091368 0.999158
                        CHANNELS 3 Zrotation Xrotation Yrotation
                        JOINT RightHandIndex2
                        {
                          OFFSET -3.61937 0 0
                          CHANNELS 3 Zrotation Xrotation Yrotation
                          JOINT RightHandIndex3
                          {
                            OFFSET -2.0521 0 0
                            CHANNELS 3 Zrotation Xrotation Yrotation
                            End Site
                            {
                              OFFSET -1.805 0 0
                            }
                          }
                        }
                      }
                    }
                    JOINT RightInHandMiddle
                    {
                      OFFSET -3.38211 0.517263 0.756737
                      CHANNELS 3 Zrotation Xrotation Yrotation
                      JOINT RightHandMiddle1
                      {
                        OFFSET -5.17411 -0.084 0.313895
                        CHANNELS 3 Zrotation Xrotation Yrotation
                        JOINT RightHandMiddle2
                        {
                          OFFSET -3.94947 0 0
                          CHANNELS 3 Zrotation Xrotation Yrotation
                          JOINT RightHandMiddle3
                          {
                            OFFSET -2.47579 0 0
                            CHANNELS 3 Zrotation Xrotation Yrotation
                            End Site
                            {
                              OFFSET -1.975 0 0
                            }
                          }
                        }
                      }
                    }
                    JOINT RightInHandRing
                    {
                      OFFSET -3.36516 0.537895 -0.128947
                      CHANNELS 3 Zrotation Xrotation Yrotation
                      JOINT RightHandRing1
                      {
                        OFFSET -4.63474 -0.022105 -0.478947
                        CHANNELS 3 Zrotation Xrotation Yrotation
                        JOINT RightHandRing2
                        {
                          OFFSET -3.44238 0 0
                          CHANNELS 3 Zrotation Xrotation Yrotation
                          JOINT RightHandRing3
                          {
                            OFFSET -2.3881 0 0
                            CHANNELS 3 Zrotation Xrotation Yrotation
                            End Site
                            {
                              OFFSET -1.857 0 0
                            }
                          }
                        }
                      }
                    }
                    JOINT RightInHandPinky
                    {
                      OFFSET -3.16105 0.469368 -1.20179
                      CHANNELS 3 Zrotation Xrotation Yrotation
                      JOINT RightHandPinky1
                      {
                        OFFSET -4.14105 -0.022105 -1.09053
                        CHANNELS 3 Zrotation Xrotation Yrotation
                        JOINT RightHandPinky2
                        {
                          OFFSET -2.75653 0 0
                          CHANNELS 3 Zrotation Xrotation Yrotation
                          JOINT RightHandPinky3
                          {
                            OFFSET -1.74189 0 0
                            CHANNELS 3 Zrotation Xrotation Yrotation
                            End Site
                            {
                              OFFSET -1.645 0 0
                            }
                          }
                        }
                      }
                    }
                  }
                }
              }
            }
            JOINT LeftShoulder
            {
              OFFSET 3.25178 6.92057 -0.0384945
              CHANNELS 3 Zrotation Xrotation Yrotation
              JOINT LeftArm
              {
                OFFSET 12.8462 -0.0383255 -0.0637898
                CHANNELS 3 Zrotation Xrotation Yrotation
                JOINT LeftForeArm
                {
                  OFFSET 26.4888 -0.0608964 -0.0673835
                  CHANNELS 3 Zrotation Xrotation Yrotation
                  JOINT LeftHand
                  {
                    OFFSET 25.9932 -0.0402352 -0.0274148
                    CHANNELS 3 Zrotation Xrotation Yrotation
                    JOINT LeftHandThumb1
                    {
                      OFFSET 2.48905 0.190105 3.12053
                      CHANNELS 3 Zrotation Xrotation Yrotation
                      JOINT LeftHandThumb2
                      {
                        OFFSET 3.68274 0 0
                        CHANNELS 3 Zrotation Xrotation Yrotation
                        JOINT LeftHandThumb3
                        {
                          OFFSET 2.55832 0 0
                          CHANNELS 3 Zrotation Xrotation Yrotation
                          End Site
                          {
                            OFFSET 2.194 0 0
                          }
                        }
                      }
                    }
                    JOINT LeftInHandIndex
                    {
                      OFFSET 3.22368 0.508421 1.97842
                      CHANNELS 3 Zrotation Xrotation Yrotation
                      JOINT LeftHandIndex1
                      {
                        OFFSET 5.21684 -0.091368 0.999158
                        CHANNELS 3 Zrotation Xrotation Yrotation
                        JOINT LeftHandIndex2
                        {
                          OFFSET 3.61937 0 0
                          CHANNELS 3 Zrotation Xrotation Yrotation
                          JOINT LeftHandIndex3
                          {
                            OFFSET 2.0521 0 0
                            CHANNELS 3 Zrotation Xrotation Yrotation
                            End Site
                            {
                              OFFSET 1.805 0 0
                            }
                          }
                        }
                      }
                    }
                    JOINT LeftInHandMiddle
                    {
                      OFFSET 3.38211 0.517263 0.756737
                      CHANNELS 3 Zrotation Xrotation Yrotation
                      JOINT LeftHandMiddle1
                      {
                        OFFSET 5.17411 -0.084 0.313895
                        CHANNELS 3 Zrotation Xrotation Yrotation
                        JOINT LeftHandMiddle2
                        {
                          OFFSET 3.94947 0 0
                          CHANNELS 3 Zrotation Xrotation Yrotation
                          JOINT LeftHandMiddle3
                          {
                            OFFSET 2.47579 0 0
                            CHANNELS 3 Zrotation Xrotation Yrotation
                            End Site
                            {
                              OFFSET 1.975 0 0
                            }
                          }
                        }
                      }
                    }
                    JOINT LeftInHandRing
                    {
                      OFFSET 3.36516 0.537895 -0.128947
                      CHANNELS 3 Zrotation Xrotation Yrotation
                      JOINT LeftHandRing1
                      {
                        OFFSET 4.63474 -0.022105 -0.478947
                        CHANNELS 3 Zrotation Xrotation Yrotation
                        JOINT LeftHandRing2
                        {
                          OFFSET 3.44238 0 0
                          CHANNELS 3 Zrotation Xrotation Yrotation
                          JOINT LeftHandRing3
                          {
                            OFFSET 2.3881 0 0
                            CHANNELS 3 Zrotation Xrotation Yrotation
                            End Site
                            {
                              OFFSET 1.857 0 0
                            }
                          }
                        }
                      }
                    }
                    JOINT LeftInHandPinky
                    {
                      OFFSET 3.16105 0.469368 -1.20179
                      CHANNELS 3 Zrotation Xrotation Yrotation
                      JOINT LeftHandPinky1
                      {
                        OFFSET 4.14105 -0.022105 -1.09053
                        CHANNELS 3 Zrotation Xrotation Yrotation
                        JOINT LeftHandPinky2
                        {
                          OFFSET 2.75653 0 0
                          CHANNELS 3 Zrotation Xrotation Yrotation
                          JOINT LeftHandPinky3
                          {
                            OFFSET 1.74189 0 0
                            CHANNELS 3 Zrotation Xrotation Yrotation
                            End Site
                            {
                              OFFSET 1.645 0 0
                            }
                          }
                        }
                      }
                    }
                  }
                }
              }
            }
          }
        }
      }
    }
  }
}
MOTION
Frames: 2
Frame Time: 0.00833333
1.050000000000000000e+03 0.000000000000000000e+00 0.000000000000000000e+00 0.000000000000000000e+00 0.000000000000000000e+00 0.000000000000000000e+00 -1.891405937548718796e+01 -6.756878701239796392e+00 1.494113181910977062e+02 -2.565942274329285056e+01 6.096144651695848893e+01 -2.154261945431499470e+01 2.181360425169096562e+00 -1.535529218569395837e+01 -5.741871099037502368e+00 -2.407478615641516484e+01 5.024514399540975518e+01 -1.041934006801203871e+01 -4.971913690777052608e+01 1.118982932172723466e+01 -3.813435086522778761e+01 2.789870967541619251e+01 -2.502063692205322099e+01 -3.496883025580937954e+01 -2.577380651978244686e+01 1.691555641145322753e+01 -7.558971832746021846e+01 2.829633268844438554e+00 -8.650620729213982507e-01 4.986929052591636946e+01 8.408221516294100972e-01 -9.628976736212222498e-01 1.255114414815461110e+01 1.410190742910419459e+00 -1.775293764706093347e+00 1.948368431661722155e+01 1.232941417965230047e+00 5.700399274934853100e-02 -4.914656082918906321e+00 3.479215460913747116e+00 -9.730491126137726932e-01 -7.217616545211943446e+01 1.945399060595084961e+01 5.240787984975692204e+00 -4.852235080869085238e+01 -5.133175245500197548e+00 -1.771452674420309492e+01 2.963876707633583862e+01 -3.797608902522724605e+01 7.431232956849765969e+01 8.275931354984042798e+01 -5.639607090294674663e+01 -3.350426688923398011e+00 -4.052765949447123717e+01 1.197279586905068527e+01 1.522219656418741351e+01 -1.888827009891041797e+00 0.000000000000000000e+00 0.000000000000000000e+00 0.000000000000000000e+00 8.237117217120759985e-15 2.270973040915952852e-15 0.000000000000000000e+00 1.748390681774061473e-15 -1.760968323992290347e-15 0.000000000000000000e+00 4.146489161936772057e-15 -5.061978127975153218e-15 1.259691101244803145e-15 0.000000000000000000e+00 0.000000000000000000e+00 0.000000000000000000e+00 0.000000000000000000e+00 7.909076151652668554e-16 1.573271005662556307e-14 0.000000000000000000e+00 -1.806769587970552026e-15 1.023773126752176879e-14 4.146489161936772057e-15 -5.061978127975153218e-15 1.259691101244803145e-15 0.000000000000000000e+00 -3.624045694363144087e-15 -7.537760589670728994e-15 0.000000000000000000e+00 7.252382031766221062e-15 5.256595068817469462e-15 0.000000000000000000e+00 4.913575559900126731e-15 3.096784587676111783e-15 4.146489161936772057e-15 -5.061978127975153218e-15 1.259691101244803145e-15 0.000000000000000000e+00 0.000000000000000000e+00 0.000000000000000000e+00 0.000000000000000000e+00 3.551362486096501406e-15 4.123196243116433968e-15 0.000000000000000000e+00 -8.533061027989829838e-16 1.213619891083166181e-14 4.146489161936772057e-15 -5.061978127975153218e-15 1.259691101244803145e-15 0.000000000000000000e+00 0.000000000000000000e+00 0.000000000000000000e+00 0.000000000000000000e+00 4.193429509371657374e-15 1.174592352730743700e-14 0.000000000000000000e+00 8.219626923808003141e-16 2.892628347218066369e-15 -1.151182424975838714e+01 1.263022016324850405e+01 2.597430229268280755e+01 -4.107169384425039027e+01 -6.258760363443853691e+01 8.946212653379848234e+01 -1.617270596998731946e+01 -4.406864916244279584e+01 -1.180091606400715989e+02 1.408494994953156088e+01 4.067169897877086271e+00 -1.920549695511716237e+01 0.000000000000000000e+00 0.000000000000000000e+00 0.000000000000000000e+00 6.483878374297502261e-15 5.682086088912974831e-16 0.000000000000000000e+00 2.621381824594731068e-15 -5.887714125019870246e-15 0.000000000000000000e+00 1.494965424858813174e-15 -5.371467316888088665e-16 -2.379357312226453176e-15 0.000000000000000000e+00 0.000000000000000000e+00 0.000000000000000000e+00 0.000000000000000000e+00 -4.544970979311594215e-15 2.708692476644571254e-15 0.000000000000000000e+00 9.814052875412599565e-16 4.676035935524203686e-15 1.494965424858813174e-15 -5.371467316888088665e-16 -2.379357312226453176e-15 0.000000000000000000e+00 1.153666942902954319e-15 -4.305595600485242931e-15 0.000000000000000000e+00 1.520276323160788544e-15 -2.336838268306100120e-15 0.000000000000000000e+00 6.005362778437499771e-15 9.747840389052207463e-15 1.494965424858813174e-15 -5.371467316888088665e-16 -2.379357312226453176e-15 0.000000000000000000e+00 0.000000000000000000e+00 0.000000000000000000e+00 0.000000000000000000e+00 4.569197732190233442e-15 7.937246437270491566e-15 0.000000000000000000e+00 -2.167024895681996447e-15 2.290997896555361881e-15 1.494965424858813174e-15 -5.371467316888088665e-16 -2.379357312226453176e-15 0.000000000000000000e+00 0.000000000000000000e+00 0.000000000000000000e+00 0.000000000000000000e+00 -3.490133897661895028e-15 3.778884588526767101e-15 0.000000000000000000e+00 -1.325955787905196553e-15 -2.500810738242253198e-16
1.050000000000000000e+03 0.000000000000000000e+00 0.000000000000000000e+00 0.000000000000000000e+00 0.000000000000000000e+00 0.000000000000000000e+00 -1.876972286576516424e+01 -6.729606884473484207e+00 1.482747208897040991e+02 -2.545185597498777952e+01 6.050188162466102426e+01 -2.135419550564663638e+01 2.156967413496948094e+00 -1.524900035941423226e+01 -5.686549664934244852e+00 -2.391162342990897116e+01 4.990620017387426088e+01 -1.030095228656177575e+01 -4.933847735060896866e+01 1.112536265220981591e+01 -3.782082298573560308e+01 2.767669368324778745e+01 -2.483539513732421256e+01 -3.469405969645087850e+01 -2.560446797328902591e+01 1.678012552521849443e+01 -7.502966238975702140e+01 2.788873532184769743e+00 -8.515553632305863374e-01 4.951914647361013522e+01 8.302442037505317618e-01 -9.545580367059918192e-01 1.246225194797279379e+01 1.392320666119938100e+00 -1.759984909487069205e+00 1.934714399340541746e+01 1.222963910113002983e+00 5.608425084577434161e-02 -4.877411727793944607e+00 3.453752805665773362e+00 -9.653801071467524864e-01 -7.164085470411544065e+01 1.929106569127997517e+01 5.192264040066392639e+00 -4.814005472182504519e+01 -5.090269086403827359e+00 -1.756891092858072412e+01 2.942734255750594485e+01 -3.772209700083816841e+01 7.374938032714655378e+01 8.216741254049897236e+01 -5.591728718986144031e+01 -3.340818626190243279e+00 -4.022595882913506671e+01 1.189461179181000183e+01 1.510511854041811475e+01 -1.936179109251841446e+00 0.000000000000000000e+00 0.000000000000000000e+00 0.000000000000000000e+00 8.185652561103208893e-15 2.263912642443889564e-15 0.000000000000000000e+00 1.738811053031632253e-15 -1.745557461198250500e-15 0.000000000000000000e+00 4.120095488492918374e-15 -5.032692894327027110e-15 1.256472741912756936e-15 0.000000000000000000e+00 0.000000000000000000e+00 0.000000000000000000e+00 0.000000000000000000e+00 7.930495322499875201e-16 1.563867021042262249e-14 0.000000000000000000e+00 -1.797455492866007249e-15 1.017504003378701411e-14 4.120095488492918374e-15 -5.032692894327027110e-15 1.256472741912756936e-15 0.000000000000000000e+00 -3.595930285956733648e-15 -7.489175782324187669e-15 0.000000000000000000e+00 7.208613036358026858e-15 5.212968633917107197e-15 0.000000000000000000e+00 4.875569827932224081e-15 3.068268887022913749e-15 4.120095488492918374e-15 -5.032692894327027110e-15 1.256472741912756936e-15 0.000000000000000000e+00 0.000000000000000000e+00 0.000000000000000000e+00 0.000000000000000000e+00 3.528231133951712656e-15 4.085186277888551767e-15 0.000000000000000000e+00 -8.525032951371218206e-16 1.206449492608927377e-14 4.120095488492918374e-15 -5.032692894327027110e-15 1.256472741912756936e-15 0.000000000000000000e+00 0.000000000000000000e+00 0.000000000000000000e+00 0.000000000000000000e+00 4.166347796515218733e-15 1.167737062356187793e-14 0.000000000000000000e+00 8.178133192457406683e-16 2.873473012924609095e-15 -1.142578770668776045e+01 1.254220838028017759e+01 2.576787573187492342e+01 -4.074917328638557024e+01 -6.213304691363368448e+01 8.883755692182639052e+01 -1.602861271091410345e+01 -4.375605397518575757e+01 -1.171147209762907266e+02 1.399295699355841549e+01 4.013529629403175036e+00 -1.906244363742101555e+01 0.000000000000000000e+00 0.000000000000000000e+00 0.000000000000000000e+00 6.447087862429393396e-15 5.634976466415911603e-16 0.000000000000000000e+00 2.601946589754866039e-15 -5.855220095971259448e-15 0.000000000000000000e+00 1.490253760532592558e-15 -5.372154827391353003e-16 -2.365044372917592859e-15 0.000000000000000000e+00 0.000000000000000000e+00 0.000000000000000000e+00 0.000000000000000000e+00 -4.520672683986038881e-15 2.691249647608014546e-15 0.000000000000000000e+00 9.789603189169720523e-16 4.655911226781925688e-15 1.490253760532592558e-15 -5.372154827391353003e-16 -2.365044372917592859e-15 0.000000000000000000e+00 1.148007767576835742e-15 -4.278065228077918895e-15 0.000000000000000000e+00 1.511280478649613199e-15 -2.320534799318110788e-15 0.000000000000000000e+00 5.972348142961742422e-15 9.705963908183751632e-15 1.490253760532592558e-15 -5.372154827391353003e-16 -2.365044372917592859e-15 0.000000000000000000e+00 0.000000000000000000e+00 0.000000000000000000e+00 0.000000000000000000e+00 4.539700336377142021e-15 7.898879705592996534e-15 0.000000000000000000e+00 -2.155581572313749473e-15 2.284466470192744818e-15 1.490253760532592558e-15 -5.372154827391353003e-16 -2.365044372917592859e-15 0.000000000000000000e+00 0.000000000000000000e+00 0.000000000000000000e+00 0.000000000000000000e+00 -3.469906564267632029e-15 3.767724920744740228e-15 0.000000000000000000e+00 -1.317321784272143434e-15 -2.499042523913514217e-16
